<svg xmlns="http://www.w3.org/2000/svg" width="200" height="200" fill="none" viewBox="0 0 200 200">
<!-- SVG created with Arrow, by QuiverAI (https://quiver.ai) -->
  <path d="m0.18 150.2c-0.65-2.07 0.54-0.81 2.5 0.18 14.8 7.77 30.81 12.81 55.2 12.81 31.51 0 54.21-5.37 70.47-11.12 0.86-0.32 1.79 0.24 2.68 0.52 4.16 1.34 10.18 1.88 16.8 2.21 1.48 0.08 5.29 0.4 6.68 0.27 3.19-0.32 8.47 0.69 13.42 3.01-17.29 9.09-44.22 18.3-83.77 19.08-38.92 0.76-68.64-9.44-81.45-21.03-1.13-1.05-2.07-4.01-2.53-5.93z" fill="url(#paint0_radial_301_3216)" stroke="#2E1500" stroke-miterlimit="10" stroke-width="1.2"/>
  <path d="m6.08 118.1c0.22-6.1 3.64-8.7 16.99-14.19 11.75-4.24 18.17-9.06 27.84-14.15l1.44 2.32 2.27 6.05-24.78 15.37-2.63 1.32-12.1 13.88c-3.95-2.57-9.21-6.26-9.03-10.6z" fill="url(#paint1_linear_301_3216)" stroke="#000" stroke-miterlimit="10" stroke-width="1.2"/>
  <path d="m8.59 118.2c0-5.05 3.53-7.09 13.42-11.85 9.2-4.14 17.82-9.94 26.78-14.71l1.33 2.65-24 14.52-12.81 7.27-1.13 9.01c-1.99-1.36-3.59-3.87-3.59-6.89z" fill="url(#paint2_linear_301_3216)" stroke="#673A00" stroke-miterlimit="10" stroke-width="1.2"/>
  <path d="m128.9 92.65c26.36 2.3 54.28 8.23 64.25 16.95 11.94 10.74 5.9 25.35-8.06 37.11l-1.76 0.9 1.8-9.42-2.37-11.05-7.61-3.08-4.06-0.95c5.07-2.99 6.96-5.92 5.3-10.6-1.8-5.24-19.3-11.57-49.57-15.39l2.08-4.47z" fill="url(#paint3_linear_301_3216)" stroke="#000" stroke-miterlimit="10" stroke-width="1.2"/>
  <path d="m128.8 95.07c19.82 1.84 46.07 7.9 55.06 14.14 7.85 5.5 4.94 13.24-2.82 18.62l-3.27-1.96-2.94-1.93c5.11-2.99 6.88-6.83 4.93-11.47-2.75-6.71-23.1-12.41-50.64-15.35l-0.32-2.05z" fill="url(#paint4_linear_301_3216)" stroke="#00112C" stroke-miterlimit="10" stroke-width="1.2"/>
  <path d="m195.9 117c2.01 6.21-0.43 16.02-11.86 26.13l1.72-6.77 1.64-5.22c5.29-5.18 6.5-8.23 5.19-16.13l3.31 1.99z" fill="url(#paint5_linear_301_3216)" stroke="#673A00" stroke-miterlimit="10" stroke-width="1.2"/>
  <path d="m188.9 113.1c2.17 6.04-1.4 11.34-7.5 14.84l-2.94-1.55c5.44-3.63 8.61-7.38 7.27-13.17-1.03-4.64-11.61-9.67-25.76-12.77 9.73 2.55 26.08 5.47 28.93 12.65z" fill="url(#paint6_linear_301_3216)" stroke="#673A00" stroke-miterlimit="10" stroke-width="1.2"/>
  <path d="m10.29 157.2c12.92 6.8 27.09 10.76 51.95 10.76 24.48 0 50.17-4.91 66.67-10.76l4.8 1.6c-15.97 7.02-40.89 13.35-69.83 12.84-21.98-0.39-39.91-5.73-53.59-14.44z" fill="url(#paint7_linear_301_3216)" stroke="#00112C" stroke-miterlimit="10" stroke-width="1.2"/>
  <path d="m128.2 162.4-2.53 1.13-1.76-1.05 2.9-1.32 1.39 1.24z" fill="#fff"/>
  <path d="m129.1 90.93c5.69-14.88 3.93-23.87-2.68-33.41l2.24-1.22c2.03 0.74 3.43-0.02 5.38-1.08 13.86 5.34 30.13 22.66 47.61 41.3 2.05 2.2 2.5-0.14 1.45-4.21-5.71-18.27-17.93-35.15-34.09-49.1 2.81-2.05 3.49-4.55 0.05-8.71-3.96-5.06-9.01-4.74-12.84-2.25-13.17-8.52-27.7-11.23-43.86-10.44-4.62 0.24-4.04 1.91-2.07 2.63 12.18 4.63 22.58 9.12 32.48 16.96-0.67 1.43-1.15 3.03-0.18 4.52l-3.47 2.11c-8.07-5.84-17.7-7.65-26.66-6.5-21.17 2.34-42.36 20.8-43.2 42.92-0.35 8.67 2.83 16.43 14.83 27.32l0.5 2.21 1.5 2.04 11.09 1.2 1.11 2.69 3.4 0.26c18.13 0.84 38.66-9.1 47.41-29.24z" fill="#000" stroke="#000" stroke-miterlimit="10" stroke-width="1.2"/>
  <path d="m91.11 22.92c13.98-0.78 29.1 1.94 43.61 11l-3.89 3.17c-9.55-8.18-21.74-12.65-39.72-14.17z" fill="url(#paint8_linear_301_3216)" stroke="#000" stroke-miterlimit="10" stroke-width=".8"/>
  <path d="m92.38 23.41c12.9 0.7 25.33 4.8 35.43 12.6l-1.7 1.4c-7.5-6.49-17.57-11.29-33.73-14z" fill="#fff"/>
  <path d="m136.2 33.91c3.52-2.71 7.98-3.03 11.19 1.32 3.36 4.16 3.09 5.68-0.34 8.68l-7.17 5.2-6.7-3.69-7.18-4.02 10.2-7.49z" fill="url(#paint9_linear_301_3216)" stroke="#000" stroke-miterlimit="10" stroke-width="1.2"/>
  <path d="m137.6 34.26c3.08-2.05 6.22-1.89 8.63 1.75 1.67 2.71 2.86 3.7 0.9 5.5l-2.41 2.4c0-4.16-3.32-7.9-7.12-9.65z" fill="url(#paint10_linear_301_3216)" stroke="#000" stroke-miterlimit="10" stroke-width=".8"/>
  <path d="m146.7 43.21c14.39 11.94 28.22 29.84 34.95 50.05 0.52 1.75 0.15 1.45-0.48 0.36-10.91-16.37-27.07-34.19-41.18-41.8l-0.95-3.21 7.66-5.4z" fill="url(#paint11_linear_301_3216)" stroke="#000" stroke-miterlimit="10" stroke-width=".8"/>
  <path d="m147.8 46.07c11.14 9.84 22.94 23.94 30.01 39.94-7.77-12.8-17.6-25.1-29.64-35.58l-0.37-4.36z" fill="#fff"/>
  <path d="m125.1 40.62c3.11-2.85 8.59-7.73 11.59-6.11 3.43 1.8 7.42 6.4 7 8.61-0.66 3.36-6.68 4.94-6.6 8.99-1.86 1.35-4.2 2.5-5.39 1.98-1.71-0.78-2.76-6.98-8.1-8.03-1.91-0.45-1.21-2.78 1.5-5.44z" fill="url(#paint12_linear_301_3216)" stroke="#000" stroke-miterlimit="10" stroke-width="1.2"/>
  <path d="m124.9 42.03c3.53-2.56 8.07-7.52 11.2-6.25 2.84 1.13 6.14 5.41 5.73 7.05-0.9 3.08-6.72 4.88-7.4 8.78-0.69 0.52-1.43 0.68-1.82 0-1.27-3.43-3.68-6.86-7.71-9.58z" fill="url(#paint13_linear_301_3216)" stroke="#000" stroke-miterlimit="10" stroke-width=".8"/>
  <path d="m121.2 46.41-3.95 2.41 5.94 7.17 6.12-3.69c0.11-3.69-3.07-6.87-5.66-6.87l-2.45 0.98z" fill="url(#paint14_linear_301_3216)" stroke="#000" stroke-miterlimit="10" stroke-width="1.2"/>
  <path d="m120.7 48.03 2.81-1.76c2.66 0.34 4.88 2.84 5.23 4.89l-4.04 2.75-4-5.88z" fill="url(#paint15_linear_301_3216)" stroke="#000" stroke-miterlimit="10" stroke-width=".8"/>
  <path d="m94.72 42.33c-21.91 1.19-43.5 19.26-44.76 41.32-1.05 18.02 13.96 35.59 38.65 35.16 18.48-0.34 39.31-15.73 43.11-37.63 2.81-15.17-9.61-40.42-37-38.85z" fill="url(#paint16_linear_301_3216)" stroke="#000" stroke-miterlimit="10" stroke-width="1.2"/>
  <path d="m125.7 64.16 5.91 9.46v3.39l-5.31-6.9-0.6-5.95z" fill="url(#paint17_linear_301_3216)" stroke="#000" stroke-miterlimit="10" stroke-width=".8"/>
  <path d="m127.3 77.01 3.21 5.6-1.41 5.06-3.21-6.26 1.41-4.4z" fill="url(#paint18_linear_301_3216)" stroke="#000" stroke-miterlimit="10" stroke-width=".8"/>
  <path d="m124.1 85.71 3.13 5.77-2.31 4.93-3.3-6.59 2.48-4.11z" fill="url(#paint19_linear_301_3216)" stroke="#000" stroke-miterlimit="10" stroke-width=".8"/>
  <path d="m119.7 92.91 3.12 5.98-4.09 5.3-3.04-7.18 4.01-4.1z" fill="url(#paint20_linear_301_3216)" stroke="#000" stroke-miterlimit="10" stroke-width=".8"/>
  <path d="m113.9 99.14 3.21 6.62-5.06 4.16-3.79-6.4 5.64-4.38z" fill="url(#paint21_linear_301_3216)" stroke="#000" stroke-miterlimit="10" stroke-width=".8"/>
  <path d="m103.6 107.1 3.42 6.12-4.77 2.71-5.3-6.52 6.65-2.31z" fill="url(#paint22_linear_301_3216)" stroke="#000" stroke-miterlimit="10" stroke-width=".8"/>
  <path d="m94.99 110.8 4.76 6.52-6.04 1.16-4.6-7.07 5.88-0.61z" fill="url(#paint23_linear_301_3216)" stroke="#000" stroke-miterlimit="10" stroke-width=".8"/>
  <path d="m86.16 112.1 3.66 6.2-6.36-0.45-3.55-5.75h6.25z" fill="url(#paint24_linear_301_3216)" stroke="#000" stroke-miterlimit="10" stroke-width=".8"/>
  <path d="m77.81 113.9 1.9 4.2-4.63-0.4-2.03-4.3 4.76 0.5z" fill="url(#paint25_linear_301_3216)" stroke="#000" stroke-miterlimit="10" stroke-width=".8"/>
  <path d="m64.83 107.8 4.24 6.09-3.06-1.6-5.2-6.59 4.02 2.1z" fill="url(#paint26_linear_301_3216)" stroke="#000" stroke-miterlimit="10" stroke-width=".8"/>
  <path d="m96.04 43.77c-19.98 0.66-40.91 15.66-43.93 36.14-2.71 17.1 8.96 30.4 28 30.26 19.8-0.14 38.98-16.68 43.51-34 4.53-16.9-7.41-33.14-27.58-32.4z" fill="url(#paint27_linear_301_3216)" stroke="#000" stroke-miterlimit="10" stroke-width=".8"/>
  <path d="m96.38 47.31c-17.64 0.51-35.27 13.77-38.87 31.15-3.18 14.45 7.05 26.6 23.01 26.6 17.28 0 34.39-14.45 37.39-29.65 3.21-15.17-7.2-28.62-21.53-28.1z" fill="url(#paint28_linear_301_3216)" stroke="#000" stroke-miterlimit="10" stroke-width=".8"/>
  <path d="m94.29 49.75c-15.43 0-31.98 13.13-33.56 29.16-1.42 14.21 9.38 22.2 20.88 21.71 14.6-0.66 31.32-12.95 34.5-27.03 2.66-11.8-6.89-23.84-21.82-23.84z" fill="url(#paint29_linear_301_3216)" stroke="#000" stroke-miterlimit="10" stroke-width=".8"/>
  <path d="m74.81 53.81c0.66 0 1.04-0.26 1.04-0.92 0-0.52-0.38-0.87-0.89-0.87-0.65 0-1.04 0.35-1.04 0.9 0 0.54 0.39 0.89 0.89 0.89z" fill="url(#paint30_linear_301_3216)" stroke="#000" stroke-miterlimit="10" stroke-width=".4"/>
  <path d="m61.83 66.56c0.65 0 1.23-0.55 1.23-1.21 0-0.59-0.45-0.94-1-0.94-0.7 0-1.17 0.52-1.17 1.14s0.39 1.01 0.94 1.01z" fill="url(#paint31_linear_301_3216)" stroke="#000" stroke-miterlimit="10" stroke-width=".4"/>
  <path d="m56.12 80.15c0.62 0 1-0.59 1-1.32 0-0.59-0.3-1.02-0.85-1.02-0.62 0-1.01 0.62-1.01 1.31 0 0.62 0.35 1.03 0.86 1.03z" fill="url(#paint32_linear_301_3216)" stroke="#000" stroke-miterlimit="10" stroke-width=".4"/>
  <path d="m57.92 93.71c0.62 0 1-0.48 1-1.17 0-0.59-0.38-0.98-0.89-0.98-0.62 0-1.01 0.52-1.01 1.18 0 0.59 0.39 0.97 0.9 0.97z" fill="url(#paint33_linear_301_3216)" stroke="#000" stroke-miterlimit="10" stroke-width=".4"/>
  <path d="m66.89 103.4c0.73 0 1.15-0.44 1.15-1.13 0-0.62-0.45-1.05-1.03-1.05-0.66 0-1.14 0.48-1.14 1.13 0 0.62 0.44 1.05 1.02 1.05z" fill="url(#paint34_linear_301_3216)" stroke="#000" stroke-miterlimit="10" stroke-width=".4"/>
  <path d="m79.41 106.8c0.7 0 1.21-0.45 1.21-1.14 0-0.62-0.48-1.05-1.14-1.05-0.73 0-1.21 0.47-1.21 1.16 0 0.62 0.48 1.03 1.14 1.03z" fill="url(#paint35_linear_301_3216)" stroke="#000" stroke-miterlimit="10" stroke-width=".4"/>
  <path d="m93.33 105.6c0.66 0 1.14-0.45 1.14-1.1 0-0.62-0.48-1.05-1.1-1.05-0.69 0-1.17 0.45-1.17 1.1 0 0.62 0.48 1.05 1.13 1.05z" fill="url(#paint36_linear_301_3216)" stroke="#000" stroke-miterlimit="10" stroke-width=".4"/>
  <path d="m106.2 98.81c0.66 0 1.17-0.55 1.17-1.25 0-0.62-0.45-1.04-1.03-1.04-0.7 0-1.17 0.52-1.17 1.21 0 0.66 0.45 1.08 1.03 1.08z" fill="url(#paint37_linear_301_3216)" stroke="#000" stroke-miterlimit="10" stroke-width=".4"/>
  <path d="m115.2 88.67c0.7 0 1.21-0.56 1.21-1.29 0-0.66-0.48-1.09-1.1-1.09-0.69 0-1.17 0.55-1.17 1.25 0 0.69 0.48 1.13 1.06 1.13z" fill="url(#paint38_linear_301_3216)" stroke="#000" stroke-miterlimit="10" stroke-width=".4"/>
  <path d="m120.4 75.36c0.86 0 1.48-0.74 1.48-1.69 0-0.82-0.59-1.41-1.4-1.41-0.91 0-1.57 0.75-1.57 1.65 0 0.86 0.62 1.45 1.49 1.45z" fill="url(#paint39_linear_301_3216)" stroke="#000" stroke-miterlimit="10" stroke-width=".4"/>
  <path d="m117.4 60.19c0.9 0 1.53-0.69 1.53-1.64 0-0.86-0.66-1.51-1.57-1.51-0.95 0-1.64 0.73-1.64 1.68 0 0.86 0.69 1.47 1.68 1.47z" fill="url(#paint40_linear_301_3216)" stroke="#000" stroke-miterlimit="10" stroke-width=".4"/>
  <path d="m91.36 48.99c0.8 0 1.35-0.56 1.35-1.39 0-0.76-0.59-1.34-1.42-1.34-0.86 0-1.48 0.65-1.48 1.51 0 0.76 0.62 1.22 1.55 1.22z" fill="url(#paint41_linear_301_3216)" stroke="#000" stroke-miterlimit="10" stroke-width=".4"/>
  <path d="m107.6 50.51c0.73 0 1.25-0.55 1.25-1.29 0-0.69-0.52-1.19-1.25-1.19s-1.25 0.55-1.25 1.28c0 0.68 0.52 1.2 1.25 1.2z" fill="url(#paint42_linear_301_3216)" stroke="#000" stroke-miterlimit="10" stroke-width=".4"/>
  <path d="m70.86 64.29 27.92 31.43-8.67 3.96-25.03-29.07 5.78-6.32z" fill="url(#paint43_linear_301_3216)" opacity=".3"/>
  <path d="m75.42 59.28 33.96 26.73 4.46-7.3-28.8-24.28-9.62 4.85z" fill="url(#paint44_linear_301_3216)" opacity=".3"/>
  <path d="m81.01 53.78 32.85 5.34-3.21-4.1c-6.54-4.9-17.64-5.91-29.64-1.24z" fill="url(#paint45_linear_301_3216)" opacity=".3"/>
  <path d="m8.21 157.4c-2.1 0-3.32-1.77-2.7-4.1l8.7-39.09c0.36-1.38 1.58-2.1 2.8-2.1h14.16c2.14 0 3.3 1.4 2.64 3.81l-1.49 6.39c4.76-0.23 8.29 0.56 10.69 2.44l2.5-10.13c0.35-1.55 1.35-2.51 3.11-2.51h12.5c2.19 0 3.19 1.55 2.69 3.6l-0.55 2.2h11.45c2.1 0 3.1 1.35 2.65 3.5l-0.75 3.11h2.6c1.49 0 2.4 1.09 2.05 2.77l-0.84 2.87c2.63-4.09 7.29-8.08 14.99-8.08 4.7 0 8.62 0.43 10.65 1.03 1.32 0.42 2.02 1.41 1.95 2.7 3.21-2.5 7.8-4.18 14.1-4.18 6.95 0 11.41 1.68 14 4.73l2.5-11.74c0.35-1.51 1.3-2.51 3.06-2.51h13.64c2.1 0 3.08 1.51 2.53 3.68l-2.03 8.62c3.43-2.3 7.89-3.7 13.6-3.7 11.4 0 17.5 6.2 17.5 14.45 0 9.9-6.82 23.75-21.9 23.75-8 0-13-1.75-16.2-4.9l-0.35 2c-0.39 1.51-1.44 2.3-2.84 2.3h-12.61c-1.8 0-2.9-1.07-2.94-2.68-3.86 2.28-8.66 3.2-13.46 3.2-6.54 0-11.4-1.59-14.55-4.61-3.95 3.3-9.94 4.29-16.05 4.29-5 0-9.1-0.9-11.4-1.89-2.6 1.09-5.6 1.61-8.8 1.61-5.8 0-8.9-1.61-10.5-3.92l-0.3 1.7c-0.39 1.47-1.39 1.9-2.8 1.9h-13.1c-1.8 0-2.8-1.2-2.7-2.88-3.2 2.04-7 2.83-10.8 2.83-2.9 0-5.3-0.62-7.1-1.74-0.4 0.75-1.3 1.28-2.3 1.28h-8z" fill="url(#paint46_linear_301_3216)" stroke="#384A66" stroke-miterlimit="10" stroke-width="1.2"/>
  <path d="m8.61 152.8 9-38.07h13l-3.2 13.9c1.65-1.55 4.3-2.5 8.2-2.5 6.5 0 7.8 3.8 5.5 13-2.5 10.3-7.1 14.2-15 14.2-4.1 0-6-1.25-6.7-3.09l-0.7 2.56h-10.1zm16.4-17.87c-1.5 2-3 7.6-2.4 10.1 0.4 1.5 1.3 2 3.3 2 4.1 0 6.1-3.1 7.2-8.1 0.9-4.4 0-6.2-3.2-6.2-2 0-3.7 0.7-4.9 2.2z" fill="url(#paint47_linear_301_3216)" stroke="#00213E" stroke-miterlimit="10" stroke-width="1.2"/>
  <path d="m41.21 152.8 5.6-25.77h9.1l-5.5 25.77h-9.2zm6.1-28.47 1.9-8.6h9.6l-2.1 8.6h-9.4z" fill="url(#paint48_linear_301_3216)" stroke="#00213E" stroke-miterlimit="10" stroke-width="1.2"/>
  <path d="m57.22 146 2.9-12h-2.51l1.5-6.5 2.8-0.15 1.9-7.95h9.4l-1.8 7.95h5.8l-1.5 6.65h-5.9l-2.2 9.7c-0.5 2.3 0.8 3.4 3.2 3.4 0.9 0 1.9-0.1 2.8-0.4l-1.4 6c-1.8 0.6-4.1 0.9-6.5 0.9-6.5 0-9.4-2.2-8.49-7.6z" fill="url(#paint49_linear_301_3216)" stroke="#00213E" stroke-miterlimit="10" stroke-width="1.2"/>
  <path d="m75.51 152 1.8-7.1c2.9 1.1 6.4 2.1 10.5 2.1 3.5 0 4.6-0.9 4.6-2.6 0-3.6-12.4 0.2-12.4-8.1 0-5.2 4.2-11 13.7-11 4.3 0 8.2 0.4 10.6 1.1l-2.1 8.3c-2.7-1.1-5.9-1.7-9.4-1.7-2.4 0-3.5 0.9-3.5 2 0 3.1 12.2-0.4 12.2 7.9 0 5.6-4 10.8-14.9 10.8-4.5 0-8.7-0.7-11.1-1.7z" fill="url(#paint50_linear_301_3216)" stroke="#00213E" stroke-miterlimit="10" stroke-width="1.2"/>
  <path d="m103 144c0-9.9 4.3-18.8 17.5-18.8 10.3 0 14.7 3.4 14.7 10 0 9.6-5 18.9-17.9 18.9-9.9 0-14.3-2.9-14.3-10.1zm22-6.9c0-3.3-1.5-4.5-4.7-4.5-4.5 0-7 5.3-7 10.5 0 3.1 1.4 4.2 4.2 4.2 4.7 0 7.5-5.4 7.5-10.2z" fill="url(#paint51_linear_301_3216)" stroke="#00213E" stroke-miterlimit="10" stroke-width="1.2"/>
  <path d="m134.4 153.3 8.3-37.3h10.6l-8.3 37.3h-10.6z" fill="url(#paint52_linear_301_3216)" stroke="#00213E" stroke-miterlimit="10" stroke-width="1.2"/>
  <path d="m150 144.3c0-9.9 5-18.8 17.7-18.8 9.5 0 14.5 2.9 14.5 9.9 0 9.2-6.1 18.8-18.4 18.8-9.4 0-13.8-2.7-13.8-9.9zm22.4-7c0-3.3-1.8-4.3-4.7-4.3-4.5 0-7.4 4.9-7.4 10.3 0 3.1 1.4 4.4 4.3 4.4 4.6 0 7.8-5.4 7.8-10.4z" fill="url(#paint53_linear_301_3216)" stroke="#00213E" stroke-miterlimit="10" stroke-width="1.2"/>
  <defs>
    <radialGradient id="paint0_radial_301_3216" cx="0" cy="0" r="1" gradientTransform="translate(84.07 164.2) scale(84.85 84.82)" gradientUnits="userSpaceOnUse">
      <stop stop-color="#00B9F2" offset=".2135"/>
      <stop stop-color="#ff0" offset=".5763"/>
      <stop stop-color="#F68700" offset=".8618"/>
      <stop stop-color="#652D90" offset="1"/>
    </radialGradient>
    <linearGradient id="paint1_linear_301_3216" x1="13.42" x2="53.84" y1="107.6" y2="102.2" gradientUnits="userSpaceOnUse">
      <stop stop-color="#00112C" offset="0"/>
      <stop stop-color="#F68700" offset=".5215"/>
      <stop stop-color="#652D90" offset="1"/>
    </linearGradient>
    <linearGradient id="paint2_linear_301_3216" x1="12.85" x2="48.84" y1="107.8" y2="102.6" gradientUnits="userSpaceOnUse">
      <stop stop-color="#0072BC" offset="0"/>
      <stop stop-color="#F68700" offset=".5215"/>
      <stop stop-color="#652D90" offset="1"/>
    </linearGradient>
    <linearGradient id="paint3_linear_301_3216" x1="127.6" x2="197.9" y1="93.05" y2="128" gradientUnits="userSpaceOnUse">
      <stop stop-color="#00112C" offset="0"/>
      <stop stop-color="#00B9F2" offset=".4118"/>
      <stop stop-color="#ff0" offset=".749"/>
      <stop stop-color="#F68700" offset="1"/>
    </linearGradient>
    <linearGradient id="paint4_linear_301_3216" x1="129.2" x2="181.8" y1="96.07" y2="119.8" gradientUnits="userSpaceOnUse">
      <stop stop-color="#00112C" offset="0"/>
      <stop stop-color="#00B9F2" offset=".5215"/>
      <stop stop-color="#ff0" offset="1"/>
    </linearGradient>
    <linearGradient id="paint5_linear_301_3216" x1="186.5" x2="192.3" y1="120.8" y2="136.1" gradientUnits="userSpaceOnUse">
      <stop stop-color="#ff0" offset="0"/>
      <stop stop-color="#A54800" offset="1"/>
    </linearGradient>
    <linearGradient id="paint6_linear_301_3216" x1="181.3" x2="181.3" y1="110.2" y2="126.3" gradientUnits="userSpaceOnUse">
      <stop stop-color="#ff0" offset="0"/>
      <stop stop-color="#F68700" offset="1"/>
    </linearGradient>
    <linearGradient id="paint7_linear_301_3216" x1="10.29" x2="133.7" y1="164" y2="164" gradientUnits="userSpaceOnUse">
      <stop stop-color="#0055A6" offset="0"/>
      <stop stop-color="#00B9F2" offset=".5215"/>
      <stop stop-color="#ff0" offset=".8764"/>
      <stop stop-color="#F68700" offset="1"/>
    </linearGradient>
    <linearGradient id="paint8_linear_301_3216" x1="91.11" x2="134.7" y1="29.63" y2="29.63" gradientUnits="userSpaceOnUse">
      <stop stop-color="#BDBEC0" offset="0"/>
      <stop stop-color="#FEFFFF" offset="1"/>
    </linearGradient>
    <linearGradient id="paint9_linear_301_3216" x1="130.7" x2="149.9" y1="39.76" y2="42.11" gradientUnits="userSpaceOnUse">
      <stop stop-color="#808285" offset="0"/>
      <stop stop-color="#FEFFFF" offset=".4945"/>
      <stop stop-color="#808285" offset="1"/>
    </linearGradient>
    <linearGradient id="paint10_linear_301_3216" x1="137.6" x2="148.1" y1="37.52" y2="37.52" gradientUnits="userSpaceOnUse">
      <stop stop-color="#BDBEC0" offset="0"/>
      <stop stop-color="#FEFFFF" offset="1"/>
    </linearGradient>
    <linearGradient id="paint11_linear_301_3216" x1="137.6" x2="182.2" y1="68.55" y2="68.55" gradientUnits="userSpaceOnUse">
      <stop stop-color="#808285" offset="0"/>
      <stop stop-color="#FEFFFF" offset=".4945"/>
      <stop stop-color="#808285" offset="1"/>
    </linearGradient>
    <linearGradient id="paint12_linear_301_3216" x1="125.1" x2="144" y1="43.78" y2="43.78" gradientUnits="userSpaceOnUse">
      <stop stop-color="#BDBEC0" offset="0"/>
      <stop stop-color="#FEFFFF" offset="1"/>
    </linearGradient>
    <linearGradient id="paint13_linear_301_3216" x1="124.9" x2="142" y1="43.74" y2="43.74" gradientUnits="userSpaceOnUse">
      <stop stop-color="#808285" offset="0"/>
      <stop stop-color="#FEFFFF" offset=".4945"/>
      <stop stop-color="#808285" offset="1"/>
    </linearGradient>
    <linearGradient id="paint14_linear_301_3216" x1="118.1" x2="129.3" y1="50.08" y2="50.63" gradientUnits="userSpaceOnUse">
      <stop stop-color="#9E6600" offset="0"/>
      <stop stop-color="#F68700" offset=".4945"/>
      <stop stop-color="#4D2E00" offset="1"/>
    </linearGradient>
    <linearGradient id="paint15_linear_301_3216" x1="120.7" x2="128.8" y1="49.81" y2="49.81" gradientUnits="userSpaceOnUse">
      <stop stop-color="#9E6600" offset="0"/>
      <stop stop-color="#F68700" offset=".4945"/>
      <stop stop-color="#4D2E00" offset="1"/>
    </linearGradient>
    <linearGradient id="paint16_linear_301_3216" x1="49.89" x2="132.6" y1="79.8" y2="80.97" gradientUnits="userSpaceOnUse">
      <stop stop-color="#ff9" offset="0"/>
      <stop stop-color="#FFD400" offset=".4945"/>
      <stop stop-color="#9F6200" offset="1"/>
    </linearGradient>
    <linearGradient id="paint17_linear_301_3216" x1="125.7" x2="131.6" y1="70.89" y2="70.89" gradientUnits="userSpaceOnUse">
      <stop stop-color="#ff9" offset="0"/>
      <stop stop-color="#FFD400" offset=".4945"/>
      <stop stop-color="#9F6200" offset="1"/>
    </linearGradient>
    <linearGradient id="paint18_linear_301_3216" x1="125.9" x2="130.5" y1="82.34" y2="82.34" gradientUnits="userSpaceOnUse">
      <stop stop-color="#ff9" offset="0"/>
      <stop stop-color="#FFD400" offset=".4945"/>
      <stop stop-color="#9F6200" offset="1"/>
    </linearGradient>
    <linearGradient id="paint19_linear_301_3216" x1="121.6" x2="127.2" y1="91.06" y2="91.06" gradientUnits="userSpaceOnUse">
      <stop stop-color="#ff9" offset="0"/>
      <stop stop-color="#FFD400" offset=".4945"/>
      <stop stop-color="#9F6200" offset="1"/>
    </linearGradient>
    <linearGradient id="paint20_linear_301_3216" x1="115.7" x2="122.8" y1="100.5" y2="100.5" gradientUnits="userSpaceOnUse">
      <stop stop-color="#ff9" offset="0"/>
      <stop stop-color="#FFD400" offset=".4945"/>
      <stop stop-color="#9F6200" offset="1"/>
    </linearGradient>
    <linearGradient id="paint21_linear_301_3216" x1="108.2" x2="117.1" y1="104" y2="104" gradientUnits="userSpaceOnUse">
      <stop stop-color="#ff9" offset="0"/>
      <stop stop-color="#FFD400" offset=".4945"/>
      <stop stop-color="#9F6200" offset="1"/>
    </linearGradient>
    <linearGradient id="paint22_linear_301_3216" x1="96.92" x2="107" y1="111" y2="111" gradientUnits="userSpaceOnUse">
      <stop stop-color="#ff9" offset="0"/>
      <stop stop-color="#FFD400" offset=".4945"/>
      <stop stop-color="#9F6200" offset="1"/>
    </linearGradient>
    <linearGradient id="paint23_linear_301_3216" x1="89.11" x2="99.75" y1="114.6" y2="114.6" gradientUnits="userSpaceOnUse">
      <stop stop-color="#ff9" offset="0"/>
      <stop stop-color="#FFD400" offset=".4945"/>
      <stop stop-color="#9F6200" offset="1"/>
    </linearGradient>
    <linearGradient id="paint24_linear_301_3216" x1="79.06" x2="89.81" y1="115.1" y2="115.1" gradientUnits="userSpaceOnUse">
      <stop stop-color="#ff9" offset="0"/>
      <stop stop-color="#FFD400" offset=".4945"/>
      <stop stop-color="#9F6200" offset="1"/>
    </linearGradient>
    <linearGradient id="paint25_linear_301_3216" x1="73.05" x2="79.71" y1="115.6" y2="115.6" gradientUnits="userSpaceOnUse">
      <stop stop-color="#ff9" offset="0"/>
      <stop stop-color="#FFD400" offset=".4945"/>
      <stop stop-color="#9F6200" offset="1"/>
    </linearGradient>
    <linearGradient id="paint26_linear_301_3216" x1="60.81" x2="69.07" y1="109.8" y2="109.8" gradientUnits="userSpaceOnUse">
      <stop stop-color="#ff9" offset="0"/>
      <stop stop-color="#FFD400" offset=".4945"/>
      <stop stop-color="#9F6200" offset="1"/>
    </linearGradient>
    <linearGradient id="paint27_linear_301_3216" x1="51.62" x2="125.7" y1="77.15" y2="77.15" gradientUnits="userSpaceOnUse">
      <stop stop-color="#ff9" offset="0"/>
      <stop stop-color="#FFD400" offset=".4945"/>
      <stop stop-color="#9F6200" offset="1"/>
    </linearGradient>
    <linearGradient id="paint28_linear_301_3216" x1="56.62" x2="119.6" y1="76.43" y2="76.43" gradientUnits="userSpaceOnUse">
      <stop stop-color="#ff9" offset="0"/>
      <stop stop-color="#FFD400" offset=".4945"/>
      <stop stop-color="#9F6200" offset="1"/>
    </linearGradient>
    <linearGradient id="paint29_linear_301_3216" x1="74.91" x2="96.75" y1="54.36" y2="96.07" gradientUnits="userSpaceOnUse">
      <stop stop-color="#ff9" offset="0"/>
      <stop stop-color="#FFD400" offset=".4945"/>
      <stop stop-color="#B66900" offset="1"/>
    </linearGradient>
    <linearGradient id="paint30_linear_301_3216" x1="73.92" x2="75.85" y1="52.92" y2="52.92" gradientUnits="userSpaceOnUse">
      <stop stop-color="#ff9" offset="0"/>
      <stop stop-color="#FFD400" offset=".4945"/>
      <stop stop-color="#9F6200" offset="1"/>
    </linearGradient>
    <linearGradient id="paint31_linear_301_3216" x1="60.89" x2="63.06" y1="65.48" y2="65.48" gradientUnits="userSpaceOnUse">
      <stop stop-color="#ff9" offset="0"/>
      <stop stop-color="#FFD400" offset=".4945"/>
      <stop stop-color="#9F6200" offset="1"/>
    </linearGradient>
    <linearGradient id="paint32_linear_301_3216" x1="55.26" x2="57.12" y1="78.98" y2="78.98" gradientUnits="userSpaceOnUse">
      <stop stop-color="#ff9" offset="0"/>
      <stop stop-color="#FFD400" offset=".4945"/>
      <stop stop-color="#9F6200" offset="1"/>
    </linearGradient>
    <linearGradient id="paint33_linear_301_3216" x1="57.02" x2="58.92" y1="92.63" y2="92.63" gradientUnits="userSpaceOnUse">
      <stop stop-color="#ff9" offset="0"/>
      <stop stop-color="#FFD400" offset=".4945"/>
      <stop stop-color="#9F6200" offset="1"/>
    </linearGradient>
    <linearGradient id="paint34_linear_301_3216" x1="65.87" x2="68.04" y1="102.3" y2="102.3" gradientUnits="userSpaceOnUse">
      <stop stop-color="#ff9" offset="0"/>
      <stop stop-color="#FFD400" offset=".4945"/>
      <stop stop-color="#9F6200" offset="1"/>
    </linearGradient>
    <linearGradient id="paint35_linear_301_3216" x1="78.27" x2="80.62" y1="105.7" y2="105.7" gradientUnits="userSpaceOnUse">
      <stop stop-color="#ff9" offset="0"/>
      <stop stop-color="#FFD400" offset=".4945"/>
      <stop stop-color="#9F6200" offset="1"/>
    </linearGradient>
    <linearGradient id="paint36_linear_301_3216" x1="92.2" x2="94.47" y1="104.5" y2="104.5" gradientUnits="userSpaceOnUse">
      <stop stop-color="#ff9" offset="0"/>
      <stop stop-color="#FFD400" offset=".4945"/>
      <stop stop-color="#9F6200" offset="1"/>
    </linearGradient>
    <linearGradient id="paint37_linear_301_3216" x1="105.2" x2="107.4" y1="97.66" y2="97.66" gradientUnits="userSpaceOnUse">
      <stop stop-color="#ff9" offset="0"/>
      <stop stop-color="#FFD400" offset=".4945"/>
      <stop stop-color="#9F6200" offset="1"/>
    </linearGradient>
    <linearGradient id="paint38_linear_301_3216" x1="114.2" x2="116.4" y1="87.47" y2="87.47" gradientUnits="userSpaceOnUse">
      <stop stop-color="#ff9" offset="0"/>
      <stop stop-color="#FFD400" offset=".4945"/>
      <stop stop-color="#9F6200" offset="1"/>
    </linearGradient>
    <linearGradient id="paint39_linear_301_3216" x1="118.9" x2="121.9" y1="73.71" y2="73.71" gradientUnits="userSpaceOnUse">
      <stop stop-color="#ff9" offset="0"/>
      <stop stop-color="#FFD400" offset=".4945"/>
      <stop stop-color="#9F6200" offset="1"/>
    </linearGradient>
    <linearGradient id="paint40_linear_301_3216" x1="115.7" x2="118.9" y1="58.62" y2="58.62" gradientUnits="userSpaceOnUse">
      <stop stop-color="#ff9" offset="0"/>
      <stop stop-color="#FFD400" offset=".4945"/>
      <stop stop-color="#9F6200" offset="1"/>
    </linearGradient>
    <linearGradient id="paint41_linear_301_3216" x1="89.81" x2="92.71" y1="47.62" y2="47.62" gradientUnits="userSpaceOnUse">
      <stop stop-color="#ff9" offset="0"/>
      <stop stop-color="#FFD400" offset=".4945"/>
      <stop stop-color="#9F6200" offset="1"/>
    </linearGradient>
    <linearGradient id="paint42_linear_301_3216" x1="106.4" x2="108.9" y1="49.27" y2="49.27" gradientUnits="userSpaceOnUse">
      <stop stop-color="#ff9" offset="0"/>
      <stop stop-color="#FFD400" offset=".4945"/>
      <stop stop-color="#9F6200" offset="1"/>
    </linearGradient>
    <linearGradient id="paint43_linear_301_3216" x1="70.73" x2="86.33" y1="67.11" y2="84.81" gradientUnits="userSpaceOnUse">
      <stop stop-color="#ff9" offset="0"/>
      <stop stop-color="#FFD400" offset=".4945"/>
      <stop stop-color="#B66900" offset="1"/>
    </linearGradient>
    <linearGradient id="paint44_linear_301_3216" x1="77.3" x2="94.1" y1="56.11" y2="71.71" gradientUnits="userSpaceOnUse">
      <stop stop-color="#ff9" offset="0"/>
      <stop stop-color="#FFD400" offset=".4945"/>
      <stop stop-color="#B66900" offset="1"/>
    </linearGradient>
    <linearGradient id="paint45_linear_301_3216" x1="83.41" x2="101.1" y1="51.3" y2="57.2" gradientUnits="userSpaceOnUse">
      <stop stop-color="#ff9" offset="0"/>
      <stop stop-color="#FFD400" offset=".4945"/>
      <stop stop-color="#B66900" offset="1"/>
    </linearGradient>
    <linearGradient id="paint46_linear_301_3216" x1="95.71" x2="95.71" y1="112.1" y2="158.9" gradientUnits="userSpaceOnUse">
      <stop stop-color="#00112C" offset="0"/>
      <stop stop-color="#00213E" offset=".5215"/>
      <stop stop-color="#00112C" offset="1"/>
    </linearGradient>
    <linearGradient id="paint47_linear_301_3216" x1="24.26" x2="24.26" y1="114.7" y2="153.3" gradientUnits="userSpaceOnUse">
      <stop stop-color="#FEFFFF" offset="0"/>
      <stop stop-color="#00B9F2" offset=".3455"/>
      <stop stop-color="#004799" offset="1"/>
    </linearGradient>
    <linearGradient id="paint48_linear_301_3216" x1="50.37" x2="50.37" y1="115.7" y2="153.3" gradientUnits="userSpaceOnUse">
      <stop stop-color="#FEFFFF" offset="0"/>
      <stop stop-color="#00B9F2" offset=".3455"/>
      <stop stop-color="#004799" offset="1"/>
    </linearGradient>
    <linearGradient id="paint49_linear_301_3216" x1="67.48" x2="67.48" y1="119.4" y2="153.6" gradientUnits="userSpaceOnUse">
      <stop stop-color="#FEFFFF" offset="0"/>
      <stop stop-color="#00B9F2" offset=".3455"/>
      <stop stop-color="#004799" offset=".9916"/>
    </linearGradient>
    <linearGradient id="paint50_linear_301_3216" x1="89.96" x2="89.96" y1="125.3" y2="153.7" gradientUnits="userSpaceOnUse">
      <stop stop-color="#FEFFFF" offset="0"/>
      <stop stop-color="#FFD400" offset=".5055"/>
      <stop stop-color="#F68700" offset="1"/>
    </linearGradient>
    <linearGradient id="paint51_linear_301_3216" x1="119.1" x2="119.1" y1="125.2" y2="154.1" gradientUnits="userSpaceOnUse">
      <stop stop-color="#FEFFFF" offset="0"/>
      <stop stop-color="#FFD400" offset=".5055"/>
      <stop stop-color="#F68700" offset="1"/>
    </linearGradient>
    <linearGradient id="paint52_linear_301_3216" x1="143.9" x2="143.9" y1="116" y2="153.3" gradientUnits="userSpaceOnUse">
      <stop stop-color="#FEFFFF" offset="0"/>
      <stop stop-color="#FFD400" offset=".5055"/>
      <stop stop-color="#F68700" offset="1"/>
    </linearGradient>
    <linearGradient id="paint53_linear_301_3216" x1="166.1" x2="166.1" y1="125.5" y2="154.2" gradientUnits="userSpaceOnUse">
      <stop stop-color="#FEFFFF" offset="0"/>
      <stop stop-color="#FFD400" offset=".5055"/>
      <stop stop-color="#F68700" offset="1"/>
    </linearGradient>
  </defs>
</svg>